<?xml version="1.0" encoding="UTF-8" standalone="no"?>
<!DOCTYPE svg PUBLIC "-//W3C//DTD SVG 1.1//EN" "http://www.w3.org/Graphics/SVG/1.1/DTD/svg11.dtd">
<svg width="100%" height="100%" viewBox="0 0 2048 1536" version="1.1" xmlns="http://www.w3.org/2000/svg" xmlns:xlink="http://www.w3.org/1999/xlink" xml:space="preserve" xmlns:serif="http://www.serif.com/" style="fill-rule:evenodd;clip-rule:evenodd;stroke-linejoin:round;stroke-miterlimit:2;">
    <g id="Logo" transform="matrix(2.07163,0,0,2.07163,-1200.11,-863.244)">
        <g id="J-" serif:id="J+">
            <path id="_-" serif:id="{" d="M646.078,886.409L701.447,886.346C701.447,886.346 706.905,858.75 701.495,846.688C694.909,832.007 668.473,809.711 661.934,798.256C659.558,794.093 659.149,787.559 662.221,783.879C668.758,776.045 698.292,767.945 701.158,751.257C707.711,713.101 701.537,554.94 701.537,554.94L764.253,554.699L764.048,491.863L701.969,492.183C650.961,492.662 645.402,511.155 645.6,544.394L645.914,735.693C645.914,735.693 593.418,764.962 582.946,775.233C577.69,780.389 578.467,791.583 583.081,797.32C593.597,810.397 646.042,853.691 646.042,853.691L646.078,886.409Z" style="fill:white;"/>
            <path id="J" d="M795.558,555.005L795.717,491.863L985.121,491.863C1000.15,492.505 1008.22,503.811 1008.27,515.877L1008.6,1067.3C1005.45,1075.94 1000.04,1081.26 992.059,1082.8L654.039,1082.98C648.233,1080.38 645.468,1074.98 645.605,1066.92L646.064,909.544L701.163,909.616L701.442,1027.76L945.4,1027.78L945.172,554.99L795.558,555.005Z" style="fill:white;"/>
            <clipPath id="_clip1">
                <path id="J1" serif:id="J" d="M795.558,555.005L795.717,491.863L985.121,491.863C1000.15,492.505 1008.22,503.811 1008.27,515.877L1008.6,1067.3C1005.45,1075.94 1000.04,1081.26 992.059,1082.8L654.039,1082.98C648.233,1080.38 645.468,1074.98 645.605,1066.92L646.064,909.544L701.163,909.616L701.442,1027.76L945.4,1027.78L945.172,554.99L795.558,555.005Z"/>
            </clipPath>
            <g clip-path="url(#_clip1)">
                <g transform="matrix(1,0,0,1.12467,0,-121.978)">
                    <rect x="626.518" y="906.058" width="93.712" height="60.316" style="fill:rgb(34,181,115);"/>
                </g>
                <g transform="matrix(1.08844,0,0,1.21775,-77.8305,-122.782)">
                    <rect x="795.047" y="491.863" width="57.846" height="72.004" style="fill:rgb(251,176,59);"/>
                </g>
            </g>
        </g>
        <g id="L-" serif:id="L+">
            <path id="L" d="M1118.77,1082.96L1118.72,514.441C1119.64,503.291 1125.34,492.711 1135.43,492.129L1149.48,492.008C1167.49,490.977 1172.02,502.058 1173.69,515.166L1174.18,1027.83L1331.98,1027.81L1332.19,1082.78L1118.77,1082.96Z" style="fill:white;"/>
            <clipPath id="_clip2">
                <path id="L1" serif:id="L" d="M1118.77,1082.96L1118.72,514.441C1119.64,503.291 1125.34,492.711 1135.43,492.129L1149.48,492.008C1167.49,490.977 1172.02,502.058 1173.69,515.166L1174.18,1027.83L1331.98,1027.81L1332.19,1082.78L1118.77,1082.96Z"/>
            </clipPath>
            <g clip-path="url(#_clip2)">
                <rect x="1277.38" y="1004.89" width="69.274" height="101.756" style="fill:rgb(237,28,36);"/>
            </g>
            <path id="_-1" serif:id="}" d="M1371.11,1027.99L1370.56,1082.93L1465.25,1082.96C1487.71,1079.74 1504.08,1064.61 1513.26,1035.18L1513.21,848.452C1552.13,812.124 1568.28,798.912 1567.89,787.449C1567.39,772.874 1544.34,753.373 1513.43,735.741L1513.76,555.201C1514.64,527.11 1485.58,492.128 1449.73,492.008L1394.77,492.008C1380.49,492.175 1371.58,502.378 1370.84,516.518L1371.25,531.796C1372.05,544.858 1381.39,551.277 1394.67,555.081L1449.86,555.03L1449.81,721.298C1458.33,751.401 1496.48,764.145 1496.53,787.482C1496.57,810.819 1451.33,829.677 1450.09,861.321L1449.62,1027.79L1371.11,1027.99Z" style="fill:white;"/>
        </g>
    </g>
</svg>
